<svg xmlns="http://www.w3.org/2000/svg" width="336" height="2in" viewBox="0 0 88.9 50.8" id="svg3774"><g id="layer1" transform="translate(0 -246.2)"><rect style="fill:#ff7f2a;fill-opacity:1;stroke-width:.26458332" id="rect4583" width="35.25" height="17.01" x="45.07" y="272.53" ry="2.93"/><rect style="fill:#0074c8;stroke-width:.26458332;fill-opacity:1" id="rect3776" width="44.22" height="27.5" x="6.43" y="250.79" ry="2.93"/><text style="font-style:normal;font-variant:normal;font-weight:700;font-stretch:normal;font-size:23.10069656px;line-height:1.25;font-family:Ubuntu;-inkscape-font-specification:'Ubuntu Bold';letter-spacing:0;word-spacing:0;fill:#fff;fill-opacity:1;stroke:none;stroke-width:.36094838" x="10.86" y="236.35" id="text4587" transform="scale(.86427 1.15705)"><tspan id="tspan4585" x="10.86" y="236.35" style="font-style:normal;font-variant:normal;font-weight:700;font-stretch:normal;font-size:23.10069656px;font-family:Arial;-inkscape-font-specification:'Arial Bold';fill:#fff;stroke-width:.36094838">TPV</tspan></text><text style="font-style:normal;font-variant:normal;font-weight:400;font-stretch:normal;font-size:16.93333244px;line-height:1.25;font-family:Ubuntu;-inkscape-font-specification:Ubuntu;letter-spacing:0;word-spacing:0;fill:#fff;fill-opacity:1;stroke:none;stroke-width:.34194323" x="50.08" y="263.37" id="text4591" transform="scale(.92032 1.08658)"><tspan id="tspan4589" x="50.08" y="263.37" style="font-style:normal;font-variant:normal;font-weight:400;font-stretch:normal;font-size:16.93333244px;font-family:Ubuntu;-inkscape-font-specification:Ubuntu;fill:#fff;stroke-width:.34194323">.<tspan style="-inkscape-font-specification:Arial;font-family:Arial;font-weight:400;font-style:normal;font-stretch:normal;font-variant:normal" id="tspan30">com</tspan></tspan></text><text style="font-style:normal;font-variant:normal;font-weight:400;font-stretch:normal;font-size:6.25662708px;line-height:1.25;font-family:Ubuntu;-inkscape-font-specification:Ubuntu;letter-spacing:0;word-spacing:0;fill:#0074c8;fill-opacity:1;stroke:none;stroke-width:.26069278" x="51.02" y="263.31" id="text4595" transform="scale(1.01492 .9853)"><tspan id="tspan4593" x="51.02" y="263.31" style="font-style:normal;font-variant:normal;font-weight:400;font-stretch:normal;font-size:6.25662708px;font-family:Arial;-inkscape-font-specification:Arial;fill:#0074c8;fill-opacity:1;stroke-width:.26069278">Third-Party</tspan><tspan x="51.02" y="271.13" style="font-style:normal;font-variant:normal;font-weight:400;font-stretch:normal;font-size:6.25662708px;font-family:Arial;-inkscape-font-specification:Arial;fill:#0074c8;fill-opacity:1;stroke-width:.26069278" id="tspan4597">Verification</tspan></text><text style="font-style:normal;font-variant:normal;font-weight:400;font-stretch:normal;font-size:3.52777767px;line-height:1.25;font-family:Ubuntu;-inkscape-font-specification:Ubuntu;letter-spacing:0;word-spacing:0;fill:#666;fill-opacity:1;stroke:none;stroke-width:.26458332" x="80.89" y="274.79" id="text4601"><tspan id="tspan4599" x="80.89" y="274.79" style="font-style:normal;font-variant:normal;font-weight:400;font-stretch:normal;font-size:3.52777767px;font-family:Arial;-inkscape-font-specification:Arial;stroke-width:.26458332;fill:#666">TM</tspan></text><path style="fill:none;stroke:#0074c8;stroke-width:.26458332px;stroke-linecap:butt;stroke-linejoin:miter;stroke-opacity:1" d="M6.61 275.27c0 7.84-6.14 8.03-6.14 8.03" id="path4605"/><path style="fill:none;stroke:#0074c8;stroke-width:.26458332px;stroke-linecap:butt;stroke-linejoin:miter;stroke-opacity:1" d="M.47 283.3c12.2 0 12.57-5.3 12.57-5.3" id="path4607"/><path style="fill:#0074c8;fill-opacity:1;stroke:#0074c8;stroke-width:1.48913388;stroke-opacity:1;stroke-miterlimit:4;stroke-dasharray:none" d="M11.14 138.21c5.32-2.94 8.37-6.1 10.9-11.32 1.7-3.5 2.56-6.2 3.04-9.54l.25-1.68 1.75 1.92c3.06 3.35 3.8 3.55 13.27 3.76l8.13.18-.95 1.9c-3.29 6.6-11.83 11.66-23.94 14.18-3.49.72-10.45 1.6-12.61 1.6l-1.62-.01z" id="path4609" transform="translate(0 246.2) scale(.26458)"/><path style="fill:#ff7f2a;stroke:#ff7f2a;stroke-width:.26458332px;stroke-linecap:butt;stroke-linejoin:miter;stroke-opacity:1" d="M79.94 286.04c.2 7.09 7.84 7.75 7.84 7.75-13.7-.1-14.64-5.58-14.64-5.58" id="path4617"/></g></svg>

